<?xml version="1.0" standalone="no"?>
<!DOCTYPE svg PUBLIC "-//W3C//DTD SVG 20010904//EN"
 "http://www.w3.org/TR/2001/REC-SVG-20010904/DTD/svg10.dtd">
<svg version="1.0" xmlns="http://www.w3.org/2000/svg"
 width="363.000000pt" height="363.000000pt" viewBox="0 0 363.000000 363.000000"
 preserveAspectRatio="xMidYMid meet">
<metadata>
Created by potrace 1.14, written by Peter Selinger 2001-2017
</metadata>
<g transform="translate(0.000000,363.000000) scale(0.100000,-0.100000)"
fill="#000000" stroke="none">
<path d="M2054 3496 c-4 -11 -15 -14 -35 -11 -16 3 -29 2 -28 -2 3 -20 -2 -25
-15 -14 -11 9 -15 8 -20 -4 -3 -9 -10 -14 -14 -11 -5 3 -35 -3 -68 -13 -32
-10 -65 -16 -72 -13 -6 2 -12 -1 -12 -7 0 -6 -7 -8 -16 -4 -13 5 -15 2 -10
-15 13 -39 17 -72 9 -72 -5 0 -17 15 -27 33 l-19 32 -7 -25 c-3 -14 -4 -27 -1
-30 9 -8 15 -32 17 -73 1 -34 49 -165 64 -177 3 -3 21 -48 38 -100 23 -70 32
-86 32 -62 0 23 5 32 16 32 10 0 14 -5 10 -16 -3 -8 -2 -12 4 -9 6 3 10 0 10
-7 0 -7 13 -38 29 -69 16 -31 29 -68 29 -81 0 -35 64 -190 117 -280 42 -73 55
-108 38 -108 -13 0 -29 14 -36 30 -4 8 -17 31 -29 50 -20 34 -91 170 -93 180
-1 3 -10 23 -20 45 -10 22 -17 43 -17 48 1 4 -2 7 -8 7 -13 0 -13 -1 7 -46 9
-22 17 -41 18 -44 0 -3 24 -52 52 -110 48 -99 105 -218 186 -390 34 -72 77
-176 77 -185 0 -3 -6 -5 -12 -5 -12 0 -60 69 -213 310 -37 58 -75 117 -86 132
-10 15 -19 29 -19 32 0 11 -86 131 -115 162 -46 48 -83 94 -77 94 3 0 -2 8
-11 18 -10 10 -14 22 -10 27 5 4 4 6 -2 3 -10 -6 -42 21 -38 32 1 3 -12 20
-28 38 -16 17 -27 32 -24 32 4 0 0 6 -7 13 -7 8 -24 28 -38 46 -14 18 -31 39
-37 46 -7 8 -13 18 -13 23 0 6 -7 13 -16 16 -8 3 -13 10 -10 15 4 5 3 11 -2
13 -4 1 -38 42 -75 91 -38 48 -74 87 -80 87 -12 0 -54 -29 -87 -60 -8 -9 -34
-27 -55 -40 -22 -13 -42 -27 -45 -30 -11 -12 -88 -70 -94 -70 -4 0 -29 -18
-57 -40 -28 -22 -55 -40 -60 -40 -11 0 17 -54 44 -85 10 -11 20 -30 23 -42 3
-12 13 -25 22 -28 10 -3 31 -34 47 -70 17 -36 35 -65 41 -65 11 0 94 -107 94
-121 0 -5 6 -9 13 -9 8 0 18 -8 23 -18 20 -39 100 -141 110 -142 7 0 19 -16
28 -35 9 -19 27 -47 40 -62 20 -25 39 -62 36 -71 0 -2 14 -16 32 -32 18 -17
41 -38 50 -47 10 -10 23 -22 29 -28 39 -33 90 -88 86 -92 -3 -2 8 -17 24 -32
16 -15 27 -30 24 -33 -3 -2 5 -10 18 -17 12 -6 32 -26 45 -44 12 -18 35 -46
50 -63 16 -16 55 -63 88 -104 32 -41 69 -83 82 -94 13 -10 21 -20 19 -23 -3
-2 13 -22 34 -43 22 -22 39 -46 39 -55 0 -8 4 -15 10 -15 13 0 75 -69 75 -83
0 -6 26 -38 57 -72 31 -33 69 -78 84 -100 14 -22 39 -51 55 -65 15 -14 37 -43
48 -65 12 -22 43 -65 71 -95 27 -30 50 -60 50 -66 0 -6 17 -29 38 -52 36 -39
202 -275 202 -288 0 -3 8 -24 19 -47 10 -23 35 -87 56 -142 20 -55 41 -109 46
-120 4 -11 19 -47 32 -80 l23 -60 340 -2 c186 -2 334 0 329 5 -6 4 -24 27 -40
52 -29 43 -34 50 -62 84 -7 8 -13 19 -13 25 0 5 -3 11 -8 13 -4 1 -38 45 -77
97 -38 52 -77 104 -87 115 -21 25 -103 130 -138 176 -14 18 -30 38 -36 44 -38
40 -104 129 -104 141 0 8 -4 15 -10 15 -5 0 -10 4 -10 9 0 5 -13 39 -30 74
-16 36 -30 68 -30 70 0 6 -56 130 -96 212 -13 28 -27 62 -30 75 -9 41 -9 43
-32 93 -13 26 -25 61 -29 77 -3 17 -10 30 -16 30 -6 0 -7 3 -4 7 4 3 0 15 -10
25 -9 10 -14 18 -10 18 6 0 -22 111 -32 125 -4 6 -14 30 -21 55 -7 25 -17 50
-20 55 -6 9 -30 85 -32 102 0 5 -16 51 -36 103 -43 120 -93 269 -98 296 -2 11
-15 56 -29 100 -14 43 -37 122 -51 174 -14 52 -28 102 -31 110 -8 18 -7 16
-22 70 -19 71 -35 114 -46 127 -27 32 -30 39 -31 53 -1 27 -24 99 -37 112 -6
8 -14 20 -16 28 -25 93 -34 119 -54 163 -46 98 -70 152 -93 207 -24 57 -40 72
-50 46z"/>
<path d="M2181 3434 c0 -11 3 -14 6 -6 3 7 2 16 -1 19 -3 4 -6 -2 -5 -13z"/>
<path d="M460 3132 c0 -6 -6 -9 -14 -6 -13 5 -54 -10 -66 -25 -6 -7 -83 -49
-127 -70 -18 -8 -33 -22 -33 -30 0 -8 -3 -11 -6 -8 -12 11 -184 -115 -180
-132 4 -23 38 -91 46 -91 3 0 6 -9 7 -20 2 -27 -5 -25 -45 13 -61 57 -29 11
45 -67 40 -42 73 -78 73 -80 0 -4 104 -107 142 -142 7 -6 22 -24 33 -40 11
-15 30 -38 43 -51 13 -13 20 -23 16 -23 -4 0 4 -10 18 -22 14 -13 34 -37 45
-53 12 -17 40 -50 62 -75 23 -25 47 -57 54 -73 6 -15 20 -30 29 -33 10 -3 18
-10 18 -15 0 -5 9 -19 20 -31 10 -11 26 -36 35 -55 9 -19 23 -37 31 -40 7 -3
23 -20 35 -39 25 -42 76 -94 84 -86 3 3 5 -1 5 -9 0 -8 9 -20 20 -27 11 -7 20
-18 20 -26 0 -7 9 -16 20 -19 12 -3 20 -14 20 -26 0 -12 6 -21 13 -21 17 0 67
-55 67 -75 0 -9 5 -13 11 -9 8 5 109 -90 109 -103 0 -1 10 -12 23 -25 12 -13
38 -43 57 -66 19 -24 47 -57 63 -73 15 -16 27 -32 27 -37 0 -10 68 -82 77 -82
5 0 19 -16 33 -36 14 -19 42 -53 63 -75 20 -23 37 -47 37 -54 0 -8 9 -17 20
-20 11 -3 33 -25 49 -48 28 -39 48 -62 152 -174 21 -23 39 -45 39 -48 0 -16
77 -107 98 -117 4 -2 15 -19 25 -39 11 -20 29 -42 42 -49 13 -7 26 -23 29 -36
4 -13 12 -23 18 -21 6 1 18 -11 26 -28 8 -16 19 -31 24 -33 4 -2 8 -10 8 -18
0 -8 7 -17 16 -21 8 -3 13 -12 10 -20 -3 -8 -2 -12 2 -9 11 7 82 -79 82 -98 0
-9 5 -16 11 -16 5 0 7 -4 4 -10 -3 -5 2 -10 12 -10 11 0 26 -15 38 -36 10 -20
29 -44 42 -54 13 -10 23 -22 23 -27 0 -29 49 -33 363 -31 l318 3 -67 90 c-79
106 -225 275 -369 430 -142 153 -185 204 -185 219 0 8 -27 40 -59 71 -33 32
-62 68 -65 80 -3 13 -30 45 -60 72 -29 27 -62 65 -71 84 -10 19 -43 66 -75
104 -57 71 -137 175 -402 525 -82 107 -152 200 -156 205 -4 6 -34 48 -67 95
-65 94 -132 186 -155 211 -8 9 -31 37 -50 62 -19 25 -45 50 -56 56 -21 9 -74
82 -161 218 -23 37 -48 70 -55 75 -7 4 -9 8 -5 8 5 0 -11 19 -35 43 -23 24
-66 68 -95 99 -29 31 -54 53 -57 50 -4 -3 -6 0 -6 6 0 7 -22 43 -49 81 -27 38
-59 86 -70 107 -11 22 -20 32 -20 24 -1 -8 11 -35 24 -59 14 -24 23 -46 20
-49 -3 -3 -22 12 -43 34 -53 57 -92 89 -92 76z"/>
<path d="M1880 2875 c0 -8 4 -15 10 -15 5 0 7 7 4 15 -4 8 -8 15 -10 15 -2 0
-4 -7 -4 -15z"/>
</g>
</svg>
